<svg viewBox="0 0 24 24" fill="none" xmlns="http://www.w3.org/2000/svg"><path d="M8.36359 21.0494C9.15255 21.0494 9.79212 20.4099 9.79212 19.6209C9.79212 18.832 9.15255 18.1924 8.36359 18.1924C7.57463 18.1924 6.93506 18.832 6.93506 19.6209C6.93506 20.4099 7.57463 21.0494 8.36359 21.0494Z" stroke="#404040" stroke-width="1.5" stroke-linecap="round" stroke-linejoin="round"></path><path d="M16.1712 21.0494C16.9602 21.0494 17.5997 20.4099 17.5997 19.6209C17.5997 18.832 16.9602 18.1924 16.1712 18.1924C15.3823 18.1924 14.7427 18.832 14.7427 19.6209C14.7427 20.4099 15.3823 21.0494 16.1712 21.0494Z" stroke="#404040" stroke-width="1.5" stroke-linecap="round" stroke-linejoin="round"></path><path d="M20.9998 5.76422L19.5855 10.9855C19.2498 12.2283 18.1213 13.0997 16.8285 13.0997H7.98584" stroke="#404040" stroke-width="1.5" stroke-linecap="round" stroke-linejoin="round"></path><path d="M18.321 16.2853H8.87836C7.5284 16.2853 6.357 15.3354 6.07844 14.014L3.74278 2.80712C3.65707 2.34285 3.24994 2 2.77852 2H1" stroke="#404040" stroke-width="1.5" stroke-linecap="round" stroke-linejoin="round"></path></svg>