<svg xmlns="http://www.w3.org/2000/svg" id="Layer_1" viewBox="0 0 797.72 225.24"><path d="M107.02,0c-15.68,0-30.17,2.88-43.08,8.57-12.92,5.69-24.3,13.64-33.82,23.62-9.53,10-17.01,21.92-22.24,35.44C2.65,81.16,0,96.14,0,112.15s2.57,32.01,7.65,45.7c5.07,13.69,12.48,25.69,22,35.66,9.51,9.98,21.04,17.85,34.27,23.38,13.21,5.53,28.19,8.34,44.5,8.34,19.08,0,36.8-3.59,52.65-10.67,15.59-6.96,28.91-18.58,39.6-34.53l-19.18-16.13c-7.2,11.52-17.5,20.76-30.64,27.48-13.45,6.88-27.56,10.37-41.96,10.37-16.6,0-30.34-3.18-40.85-9.47-10.49-6.25-18.98-13.88-25.25-22.66-6.26-8.75-10.62-17.88-12.98-27.15-2.34-9.21-3.53-16.9-3.53-22.87v-.87H207.49v-18.74c0-12.29-2.18-24.6-6.49-36.6-4.3-11.98-10.77-22.8-19.21-32.17-8.45-9.36-19.04-16.99-31.47-22.68C137.88,2.88,123.31,0,107.02,0Zm74.2,95.28H26.28v-.87c0-2.93,1.24-8.14,3.78-15.92,2.5-7.67,6.79-15.69,12.73-23.83,5.95-8.14,14.12-15.44,24.3-21.71,10.21-6.28,23.17-9.47,38.52-9.47,10.34,0,20.27,1.91,29.52,5.67,9.23,3.75,17.33,8.92,24.09,15.35,6.74,6.43,12.15,13.99,16.07,22.45,3.93,8.49,5.92,17.72,5.92,27.45v.87Z" fill="#404040"></path><path d="M346.12,0c-15.68,0-30.17,2.88-43.08,8.57-12.92,5.69-24.3,13.64-33.82,23.62-9.53,10-17.01,21.92-22.24,35.44-5.23,13.53-7.88,28.51-7.88,44.52s2.57,32.01,7.65,45.7c5.07,13.69,12.48,25.69,22,35.66,9.52,9.98,21.04,17.85,34.27,23.38,13.21,5.53,28.19,8.34,44.5,8.34,19.08,0,36.8-3.59,52.65-10.67,15.59-6.96,28.91-18.58,39.6-34.53l-19.18-16.13c-7.2,11.52-17.5,20.76-30.64,27.48-13.45,6.88-27.56,10.37-41.96,10.37-16.6,0-30.34-3.18-40.85-9.47-10.49-6.25-18.98-13.88-25.25-22.66-6.26-8.75-10.62-17.88-12.98-27.15-2.34-9.21-3.53-16.9-3.53-22.87v-.87h181.21v-18.74c0-12.29-2.18-24.6-6.49-36.6-4.3-11.98-10.77-22.8-19.21-32.17-8.45-9.36-19.04-16.99-31.47-22.68-12.44-5.68-27.01-8.56-43.31-8.56Zm74.2,95.28h-154.93v-.87c0-2.93,1.24-8.14,3.78-15.92,2.5-7.67,6.79-15.69,12.73-23.83,5.95-8.14,14.12-15.44,24.3-21.71,10.21-6.28,23.17-9.47,38.52-9.47,10.34,0,20.27,1.91,29.52,5.67,9.23,3.75,17.33,8.92,24.09,15.35,6.74,6.43,12.15,13.99,16.07,22.45,3.93,8.49,5.92,17.72,5.92,27.45v.87Z" fill="#404040"></path><path class="Logo_cls1__9RcIg" d="M685.1,0c-16.31,0-31.61,2.81-45.45,8.34-13.83,5.53-25.83,13.4-35.67,23.39-9.83,9.98-17.63,21.99-23.16,35.68-5.54,13.69-8.35,28.9-8.35,45.21s2.81,31.53,8.35,45.21c5.54,13.7,13.33,25.7,23.16,35.68,9.82,9.98,21.82,17.85,35.67,23.39,13.84,5.54,29.13,8.34,45.45,8.34s31.52-2.81,45.21-8.34c13.69-5.54,25.69-13.41,35.67-23.39,9.99-9.99,17.86-21.99,23.39-35.67,5.54-13.68,8.34-28.89,8.34-45.21s-2.81-31.52-8.34-45.21c-5.53-13.67-13.4-25.68-23.39-35.67-10-9.99-22-17.86-35.67-23.39-13.69-5.54-28.9-8.34-45.21-8.34Zm0,201.76c-13.14,0-25.21-2.38-35.85-7.08-10.64-4.69-19.85-11.12-27.37-19.11-7.53-8-13.32-17.53-17.23-28.32-3.91-10.77-5.89-22.42-5.89-34.62s1.98-23.85,5.89-34.63c3.91-10.8,9.71-20.33,17.23-28.32,7.52-7.99,16.73-14.42,27.37-19.11,10.64-4.7,22.7-7.08,35.85-7.08s25.2,2.38,35.85,7.08c10.65,4.7,19.86,11.13,27.37,19.11,7.51,7.98,13.31,17.51,17.23,28.32,3.91,10.79,5.89,22.44,5.89,34.63s-1.98,23.83-5.89,34.62c-3.92,10.81-9.72,20.34-17.23,28.32-7.52,7.98-16.72,14.41-27.37,19.11-10.65,4.7-22.71,7.08-35.85,7.08Z" fill="#404040"></path><path d="M477.97,219.64h26.28V102.81c0-10.62,1.43-20.69,4.24-29.91,2.83-9.27,7.21-17.46,13.01-24.36,5.82-6.91,13.31-12.41,22.27-16.35,8.74-3.83,19.18-5.82,31.04-5.91V2.02c-30.58,.65-54.54,10.01-71.23,27.82-27.38,29.21-25.63,71.65-25.61,72.08v117.72Z" fill="#404040"></path></svg>