<svg width="73" height="50" viewBox="0 0 73 50" fill="none" xmlns="http://www.w3.org/2000/svg"><path d="M3.10962 34.6544V1.16675H54.1535C55.5864 1.16675 56.848 2.08287 57.2508 3.4152L61.3686 20.1973L68.9914 22.8931C70.0166 23.4432 70.6535 24.4909 70.6535 25.6271V34.6544" stroke="#747474" stroke-width="1.25" stroke-linecap="round" stroke-linejoin="round"></path><path d="M36.8809 34.6551V7.54688" stroke="#747474" stroke-width="1.25" stroke-linecap="round" stroke-linejoin="round"></path><path d="M63.5312 41.0332H72.2613" stroke="#747474" stroke-width="1.25" stroke-linecap="round" stroke-linejoin="round"></path><path d="M26.3096 41.0332H47.4532" stroke="#747474" stroke-width="1.25" stroke-linecap="round" stroke-linejoin="round"></path><path d="M1.5 41.0332H10.2276" stroke="#747474" stroke-width="1.25" stroke-linecap="round" stroke-linejoin="round"></path><path fill-rule="evenodd" clip-rule="evenodd" d="M26.31 41.032C26.31 45.4357 22.7108 49.0045 18.2698 49.0045C13.8288 49.0045 10.2273 45.4357 10.2273 41.032C10.2273 36.6284 13.8288 33.0596 18.2698 33.0596C22.7108 33.0596 26.31 36.6284 26.31 41.032Z" stroke="#747474" stroke-width="1.25" stroke-linecap="round" stroke-linejoin="round"></path><path fill-rule="evenodd" clip-rule="evenodd" d="M21.2856 41.0334C21.2856 42.6839 19.9347 44.0234 18.2702 44.0234C16.6058 44.0234 15.2549 42.6839 15.2549 41.0334C15.2549 39.383 16.6058 38.0435 18.2702 38.0435C19.9347 38.0435 21.2856 39.383 21.2856 41.0334Z" fill="#747474"></path><path fill-rule="evenodd" clip-rule="evenodd" d="M63.5331 41.032C63.5331 45.4357 59.9316 49.0045 55.493 49.0045C51.052 49.0045 47.4504 45.4357 47.4504 41.032C47.4504 36.6284 51.052 33.0596 55.493 33.0596C59.9316 33.0596 63.5331 36.6284 63.5331 41.032Z" stroke="#747474" stroke-width="1.25" stroke-linecap="round" stroke-linejoin="round"></path><path fill-rule="evenodd" clip-rule="evenodd" d="M58.5073 41.0334C58.5073 42.6839 57.1564 44.0234 55.4919 44.0234C53.8274 44.0234 52.4766 42.6839 52.4766 41.0334C52.4766 39.383 53.8274 38.0435 55.4919 38.0435C57.1564 38.0435 58.5073 39.383 58.5073 41.0334Z" fill="#747474"></path><path d="M61.3694 20.1972H45.7595V7.5437H58.2648" stroke="#747474" stroke-width="1.25" stroke-linecap="round" stroke-linejoin="round"></path></svg>