<svg xmlns="http://www.w3.org/2000/svg" width="50" height="50" viewBox="0 0 50 50" fill="none"><g clip-path="url(#clip0_37_199)"><path d="M6.66357 34.3368C6.66357 31.8968 7.14416 29.4808 8.07789 27.2266C9.01162 24.9723 10.3802 22.9241 12.1055 21.1988C13.8308 19.4735 15.8791 18.1049 18.1333 17.1712C20.3875 16.2374 22.8036 15.7568 25.2435 15.7568C27.6835 15.7568 30.0996 16.2374 32.3538 17.1712C34.608 18.1049 36.6562 19.4735 38.3815 21.1988C40.1069 22.9241 41.4754 24.9723 42.4092 27.2266C43.3429 29.4808 43.8235 31.8968 43.8235 34.3368" stroke="#172048" stroke-linecap="round" stroke-linejoin="round"></path><path d="M25.2436 34.3373L32.1049 27.4361" stroke="#172048" stroke-linecap="round" stroke-linejoin="round"></path><path d="M25.2437 15.6641V19.9109" stroke="#172048" stroke-linecap="round" stroke-linejoin="round"></path><path d="M38.3825 21.1318L35.3965 24.1312" stroke="#172048" stroke-linecap="round" stroke-linejoin="round"></path><path d="M43.8234 34.3364H39.5898" stroke="#172048" stroke-linecap="round" stroke-linejoin="round"></path><path d="M12.1045 21.1318L15.0906 24.1312" stroke="#172048" stroke-linecap="round" stroke-linejoin="round"></path><path d="M6.66357 34.3364H10.8972" stroke="#172048" stroke-linecap="round" stroke-linejoin="round"></path></g><defs><clipPath id="clip0_37_199"><rect width="38.4871" height="20" fill="white" transform="translate(6 15)"></rect></clipPath></defs></svg>