<svg width="64" height="63" viewBox="0 0 64 63" fill="none" xmlns="http://www.w3.org/2000/svg"><path fill-rule="evenodd" clip-rule="evenodd" d="M41.1662 10.6728C41.1662 15.7394 37.0664 19.8455 32.0076 19.8455C26.9489 19.8455 22.8469 15.7394 22.8469 10.6728C22.8469 5.60618 26.9489 1.5 32.0076 1.5C37.0664 1.5 41.1662 5.60618 41.1662 10.6728Z" stroke="#747474" stroke-width="1.25" stroke-linecap="round" stroke-linejoin="round"></path><path d="M1.5 62.1624H62.5151" stroke="#747474" stroke-width="1.25" stroke-linecap="round" stroke-linejoin="round"></path><path d="M46.7699 56.6073V45.0574C46.7699 43.37 45.4032 42.0012 43.7184 42.0012H20.2945C18.6097 42.0012 17.2451 43.37 17.2451 45.0574V56.6073" stroke="#747474" stroke-width="1.25" stroke-linecap="round" stroke-linejoin="round"></path><path d="M55.1263 56.5439C56.8095 54.598 57.2709 51.8793 56.3265 49.4856L50.9766 35.9294C49.1357 31.267 44.6365 28.2024 39.6276 28.2024H24.3889C19.3801 28.2024 14.8809 31.267 13.04 35.9294L7.68792 49.4856C6.74357 51.8793 7.20742 54.598 8.89021 56.5439" stroke="#747474" stroke-width="1.25" stroke-linecap="round" stroke-linejoin="round"></path></svg>