<svg width="34" height="27" viewBox="0 0 34 27" fill="none" xmlns="http://www.w3.org/2000/svg"><g clip-path="url(#clip0_1748_21782)"><path d="M33.4394 10.0186C30.7266 7.37751 27.5766 4.79101 24.6508 2.8375C20.0546 -0.229198 13.9564 -0.229198 9.37149 2.8375C6.45689 4.79101 3.29566 7.37751 0.582835 10.0186M0.582835 10.0186C0.481945 10.1168 0.683726 9.93127 0.582835 10.0186Z" stroke="#404040" stroke-linecap="round" stroke-linejoin="round"></path><path d="M5.54887 14.9187C5.64976 14.8205 5.43677 15.0061 5.53766 14.9078C7.40973 13.0853 9.68537 11.1972 11.7144 9.85488C14.898 7.73766 19.113 7.73766 22.2966 9.85488C24.3144 11.2082 26.5901 13.0853 28.4734 14.9078C28.5743 15.0061 28.3613 14.8205 28.4622 14.9187" stroke="#404040" stroke-linecap="round" stroke-linejoin="round"></path><path d="M23.4849 19.808C23.384 19.7098 23.597 19.8953 23.4961 19.7971C22.4536 18.7821 21.0523 17.6144 19.9313 16.8613C18.1601 15.6827 15.8173 15.6827 14.0573 16.8613C12.9363 17.6144 11.535 18.7821 10.4925 19.7971C10.3916 19.8953 10.6046 19.7098 10.5037 19.808" stroke="#404040" stroke-linecap="round" stroke-linejoin="round"></path><path d="M18.9714 24.1838L17.6635 22.9105C17.3002 22.5567 16.7111 22.5567 16.3477 22.9105L15.0398 24.1838C14.6764 24.5375 14.6764 25.1111 15.0398 25.4648L16.3477 26.7381C16.7111 27.0919 17.3002 27.0919 17.6635 26.7381L18.9714 25.4648C19.3348 25.1111 19.3348 24.5375 18.9714 24.1838Z" fill="#404040"></path><path d="M33.4394 10.0186C30.7266 7.37751 27.5766 4.79101 24.6508 2.8375C20.0546 -0.229198 13.9564 -0.229198 9.37149 2.8375C6.45689 4.79101 3.29566 7.37751 0.582835 10.0186M0.582835 10.0186C0.481945 10.1168 0.683726 9.93127 0.582835 10.0186Z" stroke="#404040" stroke-linecap="round" stroke-linejoin="round"></path><path d="M5.54887 14.9187C5.64976 14.8205 5.43677 15.0061 5.53766 14.9078C7.40973 13.0853 9.68537 11.1972 11.7144 9.85488C14.898 7.73766 19.113 7.73766 22.2966 9.85488C24.3144 11.2082 26.5901 13.0853 28.4734 14.9078C28.5743 15.0061 28.3613 14.8205 28.4622 14.9187" stroke="#404040" stroke-linecap="round" stroke-linejoin="round"></path><path d="M23.4849 19.808C23.384 19.7098 23.597 19.8953 23.4961 19.7971C22.4536 18.7821 21.0523 17.6144 19.9313 16.8613C18.1601 15.6827 15.8173 15.6827 14.0573 16.8613C12.9363 17.6144 11.535 18.7821 10.4925 19.7971C10.3916 19.8953 10.6046 19.7098 10.5037 19.808" stroke="#404040" stroke-linecap="round" stroke-linejoin="round"></path><path d="M18.9714 24.1838L17.6635 22.9105C17.3002 22.5567 16.7111 22.5567 16.3477 22.9105L15.0398 24.1838C14.6764 24.5375 14.6764 25.1111 15.0398 25.4648L16.3477 26.7381C16.7111 27.0919 17.3002 27.0919 17.6635 26.7381L18.9714 25.4648C19.3348 25.1111 19.3348 24.5375 18.9714 24.1838Z" fill="#404040"></path></g><defs><clipPath id="clip0_1748_21782"><rect width="34" height="27" fill="white"></rect></clipPath></defs></svg>